<?xml version="1.0" encoding="UTF-8"?>
<svg enable-background="new 0 0 512.001 512.001" version="1.1" viewBox="0 0 512 512" xml:space="preserve" xmlns="http://www.w3.org/2000/svg" xmlns:cc="http://creativecommons.org/ns#" xmlns:dc="http://purl.org/dc/elements/1.1/" xmlns:rdf="http://www.w3.org/1999/02/22-rdf-syntax-ns#"><metadata><rdf:RDF><cc:Work rdf:about=""><dc:format>image/svg+xml</dc:format><dc:type rdf:resource="http://purl.org/dc/dcmitype/StillImage"/><dc:title/></cc:Work></rdf:RDF></metadata>
<g transform="matrix(.77247 0 0 .64118 73.608 46.984)">
	
		<path d="m461.84 0h-170.26c-0.015 0-0.032 1e-3 -0.048 1e-3 -8.003 0.019-15.083 5.43-17.192 13.164l-62.53 229.48-7.137 7.138-1.55-1.55c-6.977-6.976-18.284-6.974-25.26 0-6.976 6.976-6.976 18.284 0 25.26l1.552 1.552-10.497 10.497-2.117-2.117c-6.974-6.976-18.284-6.976-25.26 0s-6.976 18.284 0 25.26l2.117 2.117-92.769 92.769c-24.773 24.773-24.773 65.08 0 89.854 24.773 24.772 65.08 24.773 89.853 0l48.876-48.876c23.151-23.152 60.624-23.156 83.78 0 6.974 6.975 18.284 6.975 25.26 0 6.976-6.976 6.976-18.284 0-25.26-37.111-37.114-97.183-37.117-134.3 0l-48.876 48.875c-10.844 10.844-28.489 10.843-39.335 0-10.844-10.844-10.844-28.489 0-39.333l92.769-92.769 0.988 0.988c6.974 6.976 18.284 6.977 25.26 0 6.976-6.976 6.976-18.284 0-25.26l-0.988-0.988 10.497-10.497 1.554 1.554c6.975 6.974 18.283 6.976 25.26 0 6.976-6.976 6.976-18.284 0-25.26l-1.555-1.555 7.139-7.139 229.48-62.531c7.739-2.103 13.145-9.196 13.164-17.184 0-0.018 2e-3 -0.036 2e-3 -0.054v-170.27c4e-3 -9.828-8.026-17.871-17.868-17.867zm-43.116 35.723-42.017 42.017-42.017-42.017zm-118.02 16.537 50.74 50.74-88.75 88.75zm-12.75 164.75 88.75-88.749 50.74 50.74zm156.03-71.99-42.017-42.019 42.017-42.017z"/>
	
</g>















</svg>
