<?xml version="1.0" encoding="UTF-8" standalone="no"?>
<svg
   xmlns:dc="http://purl.org/dc/elements/1.1/"
   xmlns:cc="http://creativecommons.org/ns#"
   xmlns:rdf="http://www.w3.org/1999/02/22-rdf-syntax-ns#"
   xmlns:svg="http://www.w3.org/2000/svg"
   xmlns="http://www.w3.org/2000/svg"
   version="1.1"
   id="Layer_1"
   x="0px"
   y="0px"
   viewBox="0 0 512.001 512.001"
   style="enable-background:new 0 0 512.001 512.001;"
   xml:space="preserve"><metadata
   id="metadata43"><rdf:RDF><cc:Work
       rdf:about=""><dc:format>image/svg+xml</dc:format><dc:type
         rdf:resource="http://purl.org/dc/dcmitype/StillImage" /><dc:title></dc:title></cc:Work></rdf:RDF></metadata><defs
   id="defs41" />
<g
   id="g6"
   transform="matrix(0.77246986,0,0,0.64117816,73.608004,46.983621)">
	<g
   id="g4">
		<path
   d="M 461.835,0 H 291.57 c -0.015,0 -0.032,0.001 -0.048,0.001 -8.003,0.019 -15.083,5.43 -17.192,13.164 l -62.53,229.479 -7.137,7.138 -1.55,-1.55 c -6.977,-6.976 -18.284,-6.974 -25.26,0 -6.976,6.976 -6.976,18.284 0,25.26 l 1.552,1.552 -10.497,10.497 -2.117,-2.117 c -6.974,-6.976 -18.284,-6.976 -25.26,0 -6.976,6.976 -6.976,18.284 0,25.26 l 2.117,2.117 -92.769,92.769 c -24.773,24.773 -24.773,65.08 0,89.854 24.773,24.772 65.08,24.773 89.853,0 l 48.876,-48.876 c 23.151,-23.152 60.624,-23.156 83.78,0 6.974,6.975 18.284,6.975 25.26,0 6.976,-6.976 6.976,-18.284 0,-25.26 -37.111,-37.114 -97.183,-37.117 -134.301,0 l -48.876,48.875 c -10.844,10.844 -28.489,10.843 -39.335,0 -10.844,-10.844 -10.844,-28.489 0,-39.333 l 92.769,-92.769 0.988,0.988 c 6.974,6.976 18.284,6.977 25.26,0 6.976,-6.976 6.976,-18.284 0,-25.26 l -0.988,-0.988 10.497,-10.497 1.554,1.554 c 6.975,6.974 18.283,6.976 25.26,0 6.976,-6.976 6.976,-18.284 0,-25.26 l -1.555,-1.555 7.139,-7.139 229.477,-62.531 c 7.739,-2.103 13.145,-9.196 13.164,-17.184 0,-0.018 0.002,-0.036 0.002,-0.054 V 17.867 C 479.707,8.039 471.677,-0.004 461.835,0 Z M 418.719,35.723 376.702,77.74 334.685,35.723 Z m -118.017,16.537 50.74,50.74 -88.75,88.75 z m -12.75,164.749 88.75,-88.749 50.74,50.74 z M 443.979,145.019 401.962,103 443.979,60.983 Z"
   id="path2" />
	</g>
</g>
<g
   id="g8">
</g>
<g
   id="g10">
</g>
<g
   id="g12">
</g>
<g
   id="g14">
</g>
<g
   id="g16">
</g>
<g
   id="g18">
</g>
<g
   id="g20">
</g>
<g
   id="g22">
</g>
<g
   id="g24">
</g>
<g
   id="g26">
</g>
<g
   id="g28">
</g>
<g
   id="g30">
</g>
<g
   id="g32">
</g>
<g
   id="g34">
</g>
<g
   id="g36">
</g>
</svg>
